  <svg viewBox="0 0 24 24" xmlns="http://www.w3.org/2000/svg">
    <defs>
      <linearGradient id="taskflow-gradient" x1="0%" y1="0%" x2="100%" y2="100%">
        <stop offset="0%" style="stop-color:#4F46E5;stop-opacity:1" />
        <stop offset="100%" style="stop-color:#06B6D4;stop-opacity:1" />
      </linearGradient>
    </defs>

    <!-- Background circle -->
    <circle cx="12" cy="12" r="11" fill="url(#taskflow-gradient)" opacity="0.1"/>

    <!-- Task cards/boards -->
    <rect x="2" y="6" width="5" height="6" rx="1" fill="url(#taskflow-gradient)" opacity="0.8"/>
    <rect x="9.5" y="4" width="5" height="6" rx="1" fill="url(#taskflow-gradient)" opacity="0.9"/>
    <rect x="17" y="6" width="5" height="6" rx="1" fill="url(#taskflow-gradient)"/>

    <!-- Flow arrows -->
    <path d="M7.5 9 L9 9 M9 9 L8.5 8.5 M9 9 L8.5 9.5" stroke="url(#taskflow-gradient)" stroke-width="1.5" fill="none" 
  stroke-linecap="round"/>
    <path d="M15 7 L16.5 7 M16.5 7 L16 6.5 M16.5 7 L16 7.5" stroke="url(#taskflow-gradient)" stroke-width="1.5" 
  fill="none" stroke-linecap="round"/>

    <!-- Check marks on cards -->
    <path d="M3.5 8.5 L4.5 9.5 L6 8" stroke="white" stroke-width="1" fill="none" stroke-linecap="round" 
  stroke-linejoin="round"/>
    <path d="M11 6.5 L12 7.5 L13.5 6" stroke="white" stroke-width="1" fill="none" stroke-linecap="round" 
  stroke-linejoin="round"/>

    <!-- Progress indicator -->
    <circle cx="12" cy="18" r="1.5" fill="url(#taskflow-gradient)" opacity="0.6"/>
    <circle cx="8" cy="18" r="1" fill="url(#taskflow-gradient)" opacity="0.4"/>
    <circle cx="16" cy="18" r="1" fill="url(#taskflow-gradient)" opacity="0.4"/>
  </svg>